<?xml version="1.0" encoding="UTF-8"?>
<svg id="Livello_2" data-name="Livello 2" xmlns="http://www.w3.org/2000/svg" viewBox="0 0 16.61 16.61">
  <defs>
    <style>
      .cls-1 {
        fill: #0095a5;
      }

      .cls-2 {
        fill: #252d46;
      }
    </style>
  </defs>
  <g id="Livello_1-2" data-name="Livello 1">
    <g>
      <path class="cls-1" d="M8.31,16.61c-2.22,0-4.3-.86-5.87-2.43-1.57-1.57-2.43-3.65-2.43-5.87S.86,4,2.43,2.43C4,.86,6.09,0,8.31,0s4.3.86,5.87,2.43,2.43,3.65,2.43,5.87-.86,4.3-2.43,5.87-3.65,2.43-5.87,2.43ZM8.31,1.02c-1.95,0-3.77.76-5.15,2.13s-2.13,3.2-2.13,5.15.76,3.77,2.13,5.15,3.2,2.13,5.15,2.13,3.77-.76,5.15-2.13,2.13-3.2,2.13-5.15-.76-3.77-2.13-5.15-3.2-2.13-5.15-2.13Z"/>
      <path class="cls-2" d="M8.31,3.98c-1.87,0-3.38,1.52-3.38,3.38,0,2.29,1.87,4.32,2.83,5.21.31.29.8.29,1.1,0,.96-.92,2.84-3.01,2.84-5.2,0-1.87-1.52-3.38-3.38-3.38ZM8.31,8.78c-.78,0-1.42-.64-1.42-1.42s.64-1.42,1.42-1.42,1.42.64,1.42,1.42-.64,1.42-1.42,1.42Z"/>
    </g>
  </g>
</svg>