<?xml version="1.0" encoding="UTF-8"?>
<svg id="Livello_2" data-name="Livello 2" xmlns="http://www.w3.org/2000/svg" viewBox="0 0 16.61 16.61">
  <defs>
    <style>
      .cls-1 {
        fill: #0095a5;
      }

      .cls-2 {
        fill: #252d46;
      }
    </style>
  </defs>
  <g id="Livello_1-2" data-name="Livello 1">
    <g>
      <path class="cls-1" d="M8.31,16.61c-2.22,0-4.3-.86-5.87-2.43-1.57-1.57-2.43-3.65-2.43-5.87S.86,4,2.43,2.43C4,.86,6.09,0,8.31,0s4.3.86,5.87,2.43c1.57,1.57,2.43,3.65,2.43,5.87s-.86,4.3-2.43,5.87c-1.57,1.57-3.65,2.43-5.87,2.43ZM8.31,1.02c-1.95,0-3.77.76-5.15,2.13s-2.13,3.2-2.13,5.15.76,3.77,2.13,5.15,3.2,2.13,5.15,2.13,3.77-.76,5.15-2.13,2.13-3.2,2.13-5.15-.76-3.77-2.13-5.15-3.2-2.13-5.15-2.13Z"/>
      <path class="cls-2" d="M11.73,5.43c-.34-.41-.76-.75-1.22-1.02-.13-.07-.27.07-.2.2.12.22.23.46.33.71.06.15.11.3.15.45.02.08.11.12.19.11.23-.06.46-.12.68-.2.1-.04.14-.16.07-.25ZM12.23,6.17c-.04-.07-.12-.1-.2-.07-.26.1-.56.2-.93.29-.08.02-.13.1-.12.18.08.43.14.88.15,1.34,0,.08.07.14.15.14h1.32c.09,0,.15-.07.15-.16-.06-.62-.24-1.2-.53-1.73ZM10.49,8.56h-1.78c-.08,0-.15.07-.15.15v1.07c0,.09.07.16.15.16.61.01,1.14.06,1.6.13.08.01.16-.04.18-.13.08-.39.12-.8.14-1.23,0-.08-.06-.15-.15-.15ZM8.56,12.4c0,.21.18.36.39.33h0c.06,0,.11-.03.16-.06.41-.31.79-.86,1.06-1.57.04-.11.08-.21.11-.32.03-.09-.03-.19-.13-.2-.5-.07-.99-.1-1.43-.11-.09,0-.16.07-.16.16v1.79ZM6.45,11.1c.27.7.64,1.25,1.06,1.57.05.03.1.06.16.06h0c.2.03.39-.12.39-.33v-1.79c0-.09-.07-.16-.16-.16-.44.01-.93.04-1.43.11-.1.01-.16.11-.13.2.04.11.07.22.11.32ZM7.91,8.56h-1.78c-.08,0-.15.07-.15.15.02.42.07.84.14,1.23.02.08.09.14.18.13.46-.07.99-.12,1.6-.13.09,0,.15-.07.15-.16v-1.07c0-.08-.07-.15-.15-.15ZM7.9,6.68c-.61-.01-1.14-.06-1.6-.13-.08-.01-.16.04-.18.13-.08.39-.12.81-.14,1.23,0,.08.06.15.15.15h1.78c.08,0,.15-.07.15-.15v-1.07c0-.08-.07-.15-.15-.16ZM7.66,3.88h0c-.06,0-.11.03-.16.06-.41.31-.79.86-1.06,1.57-.04.11-.08.21-.11.33-.03.09.03.19.13.2.5.07.99.1,1.43.11.09,0,.16-.07.16-.16v-1.78c0-.21-.18-.37-.39-.34ZM10.49,6.67c-.02-.08-.09-.14-.18-.13-.46.07-1,.12-1.6.13-.08,0-.15.07-.15.16v1.07c0,.08.07.15.15.15h1.78c.08,0,.15-.07.15-.15-.02-.42-.07-.84-.14-1.23ZM10.28,5.84c-.04-.11-.07-.22-.11-.33-.27-.7-.64-1.25-1.06-1.57-.05-.03-.1-.06-.16-.06h0c-.2-.03-.39.12-.39.33v1.79c0,.09.07.16.16.16.44-.01.93-.04,1.43-.11.1-.01.16-.11.13-.2ZM5.5,6.39c-.36-.09-.67-.19-.93-.29-.07-.03-.16,0-.2.07-.29.52-.47,1.11-.53,1.73,0,.08.06.16.15.16h1.32c.08,0,.14-.06.15-.14.02-.46.07-.91.15-1.34.02-.08-.04-.16-.12-.18ZM6.1,4.41c-.47.26-.88.61-1.22,1.02-.07.08-.04.21.07.25.22.08.45.15.68.2.08.02.16-.03.19-.11.05-.15.1-.3.15-.45.1-.26.21-.5.33-.71.07-.13-.07-.27-.2-.2ZM6.3,12c-.12-.22-.23-.46-.33-.71-.06-.15-.11-.29-.15-.45-.02-.08-.11-.13-.19-.11-.23.06-.46.12-.68.2-.1.04-.14.17-.07.25.34.41.76.75,1.22,1.02.13.07.27-.07.2-.2ZM5.47,8.7c0-.08-.07-.14-.15-.14h-1.32c-.09,0-.15.07-.15.16.06.62.24,1.2.53,1.72.04.07.12.1.2.07.26-.1.56-.2.92-.29.08-.02.13-.1.12-.18-.08-.43-.13-.88-.15-1.34ZM12.61,8.56h-1.32c-.08,0-.14.06-.15.14-.02.46-.07.91-.15,1.34-.02.08.04.16.12.18.36.09.67.19.92.29.07.03.16,0,.2-.07.28-.52.47-1.1.53-1.72,0-.09-.06-.16-.15-.16ZM10.64,11.29c-.1.26-.21.5-.33.71-.07.13.07.27.2.2.46-.26.88-.61,1.22-1.02.07-.09.04-.21-.07-.25-.22-.08-.44-.14-.68-.2-.08-.02-.16.03-.19.11-.05.15-.1.3-.15.45Z"/>
    </g>
  </g>
</svg>