<?xml version="1.0" encoding="UTF-8"?>
<svg id="Livello_2" data-name="Livello 2" xmlns="http://www.w3.org/2000/svg" viewBox="0 0 16.61 16.61">
  <defs>
    <style>
      .cls-1 {
        fill: #0095a5;
      }

      .cls-2 {
        fill: #252d46;
      }
    </style>
  </defs>
  <g id="Livello_1-2" data-name="Livello 1">
    <g>
      <path class="cls-1" d="M8.31,16.61c-2.22,0-4.3-.86-5.87-2.43-1.57-1.57-2.43-3.65-2.43-5.87S.86,4,2.43,2.43C4,.86,6.09,0,8.31,0s4.3.86,5.87,2.43c1.57,1.57,2.43,3.65,2.43,5.87s-.86,4.3-2.43,5.87-3.65,2.43-5.87,2.43ZM8.31,1.02c-1.95,0-3.77.76-5.15,2.13s-2.13,3.2-2.13,5.15.76,3.77,2.13,5.15,3.2,2.13,5.15,2.13,3.77-.76,5.15-2.13,2.13-3.2,2.13-5.15-.76-3.77-2.13-5.15c-1.38-1.38-3.2-2.13-5.15-2.13Z"/>
      <path class="cls-2" d="M12.47,11.07c-.63-.59-1.91-1.75-3.06-2.65-.07-.06-.07-.17,0-.23,1.16-.91,2.43-2.06,3.06-2.65.09-.08.23-.03.24.09.13,1.35.13,3.99,0,5.35-.01.12-.15.17-.24.09ZM12.27,5.33c-.79.73-2.58,2.36-3.89,3.26-.05.03-.11.03-.16,0-1.31-.91-3.1-2.53-3.89-3.26-.09-.08-.04-.23.08-.25.8-.12,2.24-.19,3.89-.19s3.09.07,3.89.19c.12.02.17.17.08.25ZM3.91,10.98c-.13-1.35-.13-3.99,0-5.35.01-.12.15-.17.24-.09.63.59,1.9,1.74,3.06,2.65.07.06.07.17,0,.23-1.15.91-2.43,2.06-3.06,2.65-.09.08-.23.03-.24-.09ZM4.34,11.29c.65-.6,1.99-1.82,3.17-2.73.05-.04.12-.04.17,0,.19.14.37.27.55.39h0s.11.03.16,0h0c.17-.12.36-.25.55-.39.05-.04.12-.04.17,0,1.18.91,2.51,2.13,3.17,2.73.09.08.04.23-.08.25-.8.12-2.24.19-3.89.19s-3.09-.07-3.89-.19c-.12-.02-.17-.17-.08-.25Z"/>
    </g>
  </g>
</svg>