<?xml version="1.0" encoding="UTF-8"?>
<svg id="Livello_2" data-name="Livello 2" xmlns="http://www.w3.org/2000/svg" viewBox="0 0 16.61 16.61">
  <defs>
    <style>
      .cls-1 {
        fill: #0095a5;
      }

      .cls-2 {
        fill: #252d46;
      }
    </style>
  </defs>
  <g id="Livello_1-2" data-name="Livello 1">
    <g>
      <path class="cls-1" d="M8.31,16.61c-2.22,0-4.3-.86-5.87-2.43S0,10.53,0,8.31.86,4,2.43,2.43C4,.86,6.09,0,8.31,0s4.3.86,5.87,2.43c1.57,1.57,2.43,3.65,2.43,5.87s-.86,4.3-2.43,5.87c-1.57,1.57-3.65,2.43-5.87,2.43ZM8.31,1.02c-1.95,0-3.77.76-5.15,2.13s-2.13,3.2-2.13,5.15.76,3.77,2.13,5.15,3.2,2.13,5.15,2.13,3.77-.76,5.15-2.13,2.13-3.2,2.13-5.15-.76-3.77-2.13-5.15c-1.38-1.38-3.2-2.13-5.15-2.13Z"/>
      <path class="cls-2" d="M11.76,9.55v1.45c0,.76-.61,1.38-1.37,1.38,0,0,0,0-.01,0-.53,0-1.03-.07-1.52-.19-2.17-.55-3.88-2.26-4.43-4.43-.12-.49-.19-1-.19-1.52,0,0,0,0,0-.01,0-.76.62-1.37,1.38-1.37h1.45c.36,0,.65.29.65.65v1.61c0,.36-.29.65-.65.65h-.49c.41,1.04,1.24,1.86,2.28,2.28v-.49c0-.36.29-.65.65-.65h1.61c.36,0,.65.29.65.65Z"/>
    </g>
  </g>
</svg>