<?xml version="1.0" encoding="UTF-8"?>
<svg id="Livello_2" data-name="Livello 2" xmlns="http://www.w3.org/2000/svg" viewBox="0 0 56.28 74.05">
  <defs>
    <style>
      .cls-1 {
        fill: #0095a5;
      }

      .cls-2 {
        fill: #221f20;
      }

      .cls-3 {
        fill: #fff;
      }
    </style>
  </defs>
  <g id="Livello_1-2" data-name="Livello 1">
    <g>
      <rect class="cls-1" x="0" y="28.14" width="56.28" height="45.91" transform="translate(56.28 102.2) rotate(180)"/>
      <g>
        <path class="cls-3" d="M28.14,55.28c-14.97,0-27.14-12.18-27.14-27.14S13.18,1,28.14,1s27.14,12.18,27.14,27.14-12.18,27.14-27.14,27.14Z"/>
        <path class="cls-1" d="M28.14,2c14.41,0,26.14,11.73,26.14,26.14s-11.73,26.14-26.14,26.14S2,42.55,2,28.14,13.73,2,28.14,2M28.14,0C12.6,0,0,12.6,0,28.14s12.6,28.14,28.14,28.14,28.14-12.6,28.14-28.14S43.68,0,28.14,0h0Z"/>
      </g>
      <g>
        <g>
          <rect class="cls-1" x="10.93" y="32.42" width="21.64" height="1.86"/>
          <path class="cls-1" d="M44.56,21.02c.42,0,.8-.22.8-.7,0-.58-.44-.9-1.02-.9-.68,0-1.18.46-1.53.86-.56-.58-1.39-.86-2.33-.86-1.77,0-3.31,1.33-3.31,3.11,0,1.08.6,1.69,1.49,2.27v.04c-1.27.02-1.95.58-1.95,1.97,0,1.1.52,1.85,1.61,1.85h4.1c1.04,0,1.87.3,1.87,1.33,0,1.93-1.87,3.2-3.84,3.28v.32c2.3-.11,4.32-1.59,4.32-4.19,0-1.83-1.1-2.29-2.21-2.29h-4.66c-.48,0-.88-.32-.88-.82,0-.94.88-1.23,1.95-1.25.22.1.64.36,1.49.36,1.55,0,3.31-1.27,3.31-2.93,0-.76-.34-1.51-.78-1.99.26-.38.74-.72,1.14-.74-.12.12-.22.24-.22.66,0,.3.26.62.64.62ZM40.47,25.08c-1.63,0-1.63-1.39-1.63-2.67,0-1.06,0-2.67,1.63-2.67s1.63,1.08,1.63,2.67c0,1.41,0,2.67-1.63,2.67Z"/>
        </g>
        <g>
          <path class="cls-2" d="M13,14.32h-1.99v-.32h6.02v.32h-1.99v13.39h2.49c3.82,0,5.02-.5,5.02-4.26h.32v4.58h-11.85v-.32h1.99v-13.39Z"/>
          <path class="cls-2" d="M31.72,27.16c0-.07,0-.14,0-.2v-5.22c0-1.53-1.79-2.31-3.31-2.31-1.99,0-3.07,1.12-3.07,2.13,0,.68.32,1.12.88,1.12.52,0,.92-.36.92-.84,0-.9-.66-.68-.66-1.16,0-.72,1.35-.94,1.93-.94.76,0,1.63.22,1.63,1.16v2.45h-.38c-2.05,0-5.02.56-5.02,2.79,0,1.35.94,2.13,2.49,2.13,1.31,0,2.21-.34,2.89-1.23h.04c.13.67.77,1.19,1.66,1.23v-1.1ZM30.03,26.27c0,.4-.66,1.51-2.15,1.51-1.27,0-1.45-.84-1.45-1.95,0-2.13,1.81-2.17,3.27-2.17h.34v2.61Z"/>
          <path class="cls-2" d="M11.01,37.79h.72c.37,0,.64.24.64.63s-.27.64-.64.64h-.51v.82h-.2v-2.08ZM11.7,38.87c.28,0,.46-.17.46-.45s-.18-.44-.46-.44h-.49v.9h.49Z"/>
          <path class="cls-2" d="M14.02,37.79h.62c.21,0,.31.02.39.06.2.09.31.28.31.54,0,.28-.16.5-.39.56h0s.02.03.05.09l.45.84h-.23l-.47-.88h-.52v.88h-.2v-2.08ZM14.72,38.81c.25,0,.41-.16.41-.42,0-.17-.07-.3-.19-.36-.06-.03-.14-.05-.3-.05h-.42v.84h.49Z"/>
          <path class="cls-2" d="M17.12,37.79h.2v2.08h-.2v-2.08Z"/>
          <path class="cls-2" d="M19.17,37.79h.2l1.06,1.5c.07.1.17.28.17.28h0s-.02-.17-.02-.28v-1.5h.2v2.08h-.2l-1.06-1.5c-.07-.1-.17-.28-.17-.28h0s.02.17.02.28v1.5h-.2v-2.08Z"/>
          <path class="cls-2" d="M23.11,37.97h-.75v-.18h1.7v.18h-.75v1.9h-.2v-1.9Z"/>
          <path class="cls-2" d="M27.86,38.75h0s-.29-.1-.29-.47c0-.32.25-.53.62-.53.1,0,.24.03.24.03l-.06.17s-.1-.02-.17-.02c-.23,0-.42.13-.42.36,0,.14.06.38.45.38h.44v-.29h.2v.29h.28v.18h-.28v.3c0,.5-.27.75-.69.75s-.7-.26-.7-.61c0-.24.14-.47.38-.55ZM28.18,39.71c.29,0,.49-.16.49-.56v-.3h-.44c-.36,0-.54.17-.54.43,0,.24.18.43.49.43Z"/>
          <path class="cls-2" d="M32.91,37.79h.21l.54,1.22c.05.11.1.25.1.25h0s.06-.15.1-.25l.54-1.22h.21l.17,2.08h-.2l-.12-1.46c0-.11,0-.29,0-.29h0s-.06.18-.11.29l-.49,1.07h-.19l-.49-1.07c-.05-.1-.11-.3-.11-.3h0s0,.18,0,.3l-.12,1.46h-.2l.17-2.08Z"/>
          <path class="cls-2" d="M37.5,37.76c.59,0,1.06.46,1.06,1.06s-.47,1.09-1.06,1.09-1.06-.48-1.06-1.09.47-1.06,1.06-1.06ZM37.5,39.72c.47,0,.85-.39.85-.9s-.38-.87-.85-.87-.85.38-.85.87.38.9.85.9Z"/>
          <path class="cls-2" d="M40.27,37.79h.62c.21,0,.31.02.39.06.2.09.31.28.31.54,0,.28-.16.5-.39.56h0s.02.03.05.09l.45.84h-.23l-.47-.88h-.52v.88h-.2v-2.08ZM40.97,38.81c.25,0,.41-.16.41-.42,0-.17-.07-.3-.19-.36-.06-.03-.14-.05-.3-.05h-.42v.84h.49Z"/>
          <path class="cls-2" d="M43.37,37.79h1.17v.18h-.97v.76h.79v.18h-.79v.77h1.02v.18h-1.23v-2.08Z"/>
        </g>
      </g>
    </g>
  </g>
</svg>