<?xml version="1.0" encoding="UTF-8"?>
<svg id="Livello_2" data-name="Livello 2" xmlns="http://www.w3.org/2000/svg" viewBox="0 0 86.29 113.54">
  <defs>
    <style>
      .cls-1 {
        fill: #0095a5;
      }

      .cls-2 {
        fill: #221f20;
      }

      .cls-3 {
        fill: #fff;
      }
    </style>
  </defs>
  <g id="Livello_1-2" data-name="Livello 1">
    <g>
      <rect class="cls-1" width="86.29" height="70.4"/>
      <g>
        <path class="cls-3" d="M43.15,112.54c-23.24,0-42.15-18.91-42.15-42.15S19.91,28.25,43.15,28.25s42.15,18.91,42.15,42.15-18.91,42.15-42.15,42.15Z"/>
        <path class="cls-1" d="M43.15,29.25c22.69,0,41.15,18.46,41.15,41.15s-18.46,41.15-41.15,41.15S2,93.09,2,70.4,20.46,29.25,43.15,29.25M43.15,27.25C19.32,27.25,0,46.57,0,70.4s19.32,43.15,43.15,43.15,43.15-19.32,43.15-43.15-19.32-43.15-43.15-43.15h0Z"/>
      </g>
      <g>
        <g>
          <rect class="cls-1" x="16.76" y="78.78" width="33.17" height="2.85"/>
          <path class="cls-1" d="M68.32,61.29c.64,0,1.22-.34,1.22-1.07,0-.89-.67-1.37-1.56-1.37-1.04,0-1.8.7-2.35,1.31-.86-.88-2.14-1.31-3.57-1.31-2.72,0-5.07,2.05-5.07,4.76,0,1.65.92,2.6,2.29,3.48v.06c-1.95.03-2.99.89-2.99,3.02,0,1.68.79,2.84,2.47,2.84h6.29c1.59,0,2.87.46,2.87,2.04,0,2.96-2.87,4.91-5.89,5.03v.48c3.52-.17,6.62-2.44,6.62-6.43,0-2.81-1.68-3.51-3.39-3.51h-7.15c-.73,0-1.34-.49-1.34-1.25,0-1.44,1.34-1.89,2.99-1.92.34.15.98.55,2.29.55,2.38,0,5.07-1.95,5.07-4.49,0-1.16-.52-2.32-1.19-3.05.4-.58,1.13-1.1,1.74-1.13-.18.18-.34.37-.34,1.01,0,.46.4.95.98.95ZM62.05,67.52c-2.5,0-2.5-2.14-2.5-4.09,0-1.62,0-4.09,2.5-4.09s2.5,1.65,2.5,4.09c0,2.17,0,4.09-2.5,4.09Z"/>
        </g>
        <g>
          <path class="cls-2" d="M19.93,51.03h-3.05v-.49h9.22v.49h-3.05v20.52h3.82c5.86,0,7.7-.76,7.7-6.54h.49v7.02h-18.17v-.49h3.05v-20.52Z"/>
          <path class="cls-2" d="M48.63,70.7c0-.11-.01-.21-.01-.31v-8c0-2.35-2.75-3.54-5.07-3.54-3.05,0-4.7,1.71-4.7,3.27,0,1.04.49,1.71,1.34,1.71.79,0,1.41-.55,1.41-1.28,0-1.37-1.01-1.04-1.01-1.77,0-1.1,2.08-1.44,2.96-1.44,1.16,0,2.5.34,2.5,1.77v3.76h-.58c-3.15,0-7.7.85-7.7,4.27,0,2.08,1.44,3.27,3.82,3.27,2.02,0,3.39-.52,4.43-1.89h.06c.21,1.03,1.19,1.83,2.55,1.88v-1.69ZM46.05,69.35c0,.61-1.01,2.32-3.3,2.32-1.95,0-2.23-1.28-2.23-2.99,0-3.27,2.78-3.33,5.01-3.33h.52v4Z"/>
          <path class="cls-2" d="M16.88,87.01h1.1c.57,0,.98.37.98.96s-.41.98-.98.98h-.79v1.25h-.31v-3.19ZM17.94,88.67c.43,0,.7-.26.7-.69s-.28-.68-.7-.68h-.75v1.37h.75Z"/>
          <path class="cls-2" d="M21.5,87.01h.94c.33,0,.47.03.6.09.3.13.48.44.48.82,0,.43-.25.76-.6.86h0s.03.05.08.14l.69,1.28h-.36l-.72-1.34h-.8v1.34h-.31v-3.19ZM22.57,88.58c.39,0,.63-.25.63-.65,0-.26-.1-.46-.29-.56-.1-.05-.21-.08-.45-.08h-.64v1.28h.76Z"/>
          <path class="cls-2" d="M26.25,87.01h.31v3.19h-.31v-3.19Z"/>
          <path class="cls-2" d="M29.4,87.01h.3l1.63,2.3c.11.16.26.43.26.43h0s-.03-.26-.03-.43v-2.3h.31v3.19h-.3l-1.63-2.3c-.11-.16-.26-.43-.26-.43h0s.03.26.03.43v2.3h-.31v-3.19Z"/>
          <path class="cls-2" d="M35.44,87.29h-1.15v-.28h2.6v.28h-1.14v2.91h-.31v-2.91Z"/>
          <path class="cls-2" d="M42.71,88.48h0s-.44-.15-.44-.72c0-.49.38-.81.96-.81.15,0,.36.05.36.05l-.09.26s-.15-.03-.26-.03c-.36,0-.64.2-.64.55,0,.21.09.58.68.58h.67v-.45h.31v.45h.43v.28h-.43v.47c0,.76-.42,1.15-1.06,1.15s-1.08-.4-1.08-.93c0-.37.21-.73.58-.84ZM43.21,89.96c.45,0,.74-.25.74-.86v-.46h-.67c-.55,0-.83.26-.83.66,0,.36.28.66.75.66Z"/>
          <path class="cls-2" d="M50.47,87.01h.33l.83,1.87c.07.16.15.39.15.39h0s.09-.23.16-.39l.83-1.87h.32l.25,3.19h-.31l-.18-2.23c-.01-.17,0-.44,0-.44h0s-.1.28-.17.44l-.75,1.64h-.29l-.75-1.64c-.07-.16-.17-.45-.17-.45h0s0,.28,0,.45l-.18,2.23h-.31l.25-3.19Z"/>
          <path class="cls-2" d="M57.5,86.96c.9,0,1.62.71,1.62,1.63s-.72,1.67-1.62,1.67-1.62-.73-1.62-1.67.72-1.63,1.62-1.63ZM57.5,89.96c.72,0,1.3-.6,1.3-1.38s-.58-1.34-1.3-1.34-1.3.58-1.3,1.34.58,1.38,1.3,1.38Z"/>
          <path class="cls-2" d="M61.74,87.01h.94c.33,0,.47.03.6.09.3.13.48.44.48.82,0,.43-.25.76-.6.86h0s.03.05.08.14l.69,1.28h-.36l-.72-1.34h-.8v1.34h-.31v-3.19ZM62.81,88.58c.39,0,.63-.25.63-.65,0-.26-.1-.46-.29-.56-.1-.05-.21-.08-.45-.08h-.64v1.28h.76Z"/>
          <path class="cls-2" d="M66.5,87.01h1.8v.28h-1.48v1.16h1.21v.28h-1.21v1.19h1.56v.28h-1.88v-3.19Z"/>
        </g>
      </g>
    </g>
  </g>
</svg>