<?xml version="1.0" encoding="UTF-8"?>
<svg id="Livello_2" data-name="Livello 2" xmlns="http://www.w3.org/2000/svg" viewBox="0 0 240.04 17.82">
  <defs>
    <style>
      .cls-1 {
        fill: #2b2b2b;
      }

      .cls-2 {
        fill: #221f20;
      }

      .cls-3 {
        fill: #0097a5;
      }
    </style>
  </defs>
  <g id="Livello_1-2" data-name="Livello 1">
    <g>
      <path class="cls-2" d="M8.23,12.77h-.1L1.89,3.62v13.86H0V.34h1.96l6.24,9.35L14.44.34h1.96v17.14h-1.93V3.6l-6.24,9.18Z"/>
      <path class="cls-2" d="M35.45,17.48h-2.08l-2.01-4.53h-9.33l-2.03,4.53h-1.98L25.83.22h1.81l7.81,17.26ZM26.71,2.49l-3.92,8.74h7.81l-3.89-8.74Z"/>
      <path class="cls-2" d="M51.46,12.27c-.44,1.05-1.06,1.96-1.87,2.73-.81.77-1.77,1.37-2.89,1.81-1.12.44-2.35.66-3.68.66h-5.95V.34h5.95c1.34,0,2.57.22,3.68.65,1.12.43,2.08,1.03,2.89,1.8.81.77,1.43,1.67,1.87,2.72.44,1.04.66,2.17.66,3.38s-.22,2.34-.66,3.39ZM49.61,6.26c-.33-.83-.81-1.55-1.42-2.17-.61-.61-1.36-1.09-2.24-1.44-.88-.35-1.86-.53-2.94-.53h-4.01v13.56h4.01c1.08,0,2.06-.17,2.94-.51s1.63-.82,2.24-1.43,1.08-1.33,1.42-2.14.5-1.71.5-2.67-.17-1.84-.5-2.67Z"/>
      <path class="cls-2" d="M66.83,2.1h-10.45v5.85h9.35v1.76h-9.35v6h10.58v1.76h-12.51V.34h12.39v1.76Z"/>
      <path class="cls-1" d="M91.77,17.6h-1.03l-5.02-14.88-5.02,14.88h-1.03L73.46.34h1.42l5.38,15.25L85.29.29h.98l5.02,15.3L96.67.34h1.32l-6.22,17.26Z"/>
      <path class="cls-1" d="M100.17,17.48V.34h1.27v17.13h-1.27Z"/>
      <path class="cls-1" d="M110.96,1.52v15.96h-1.27V1.52h-5.97V.34h13.22v1.17h-5.97Z"/>
      <path class="cls-1" d="M131.28,17.48v-8.03h-10.96v8.03h-1.27V.34h1.27v7.93h10.96V.34h1.27v17.13h-1.27Z"/>
      <path class="cls-3" d="M140.44.34h7.34c4.33,0,7.12,2.23,7.12,6.02v.05c0,4.04-3.11,6.17-7.37,6.17h-2.35v4.9h-4.75V.34ZM147.44,8.86c1.69,0,2.72-.88,2.72-2.23v-.05c0-1.47-1.03-2.25-2.74-2.25h-2.23v4.53h2.25Z"/>
      <path class="cls-3" d="M159.36.22h4.58l7.29,17.25h-5.09l-1.25-3.06h-6.61l-1.22,3.06h-4.99L159.36.22ZM163.52,10.72l-1.91-4.87-1.93,4.87h3.84Z"/>
      <path class="cls-3" d="M169.6,14.93l2.64-3.16c1.69,1.35,3.57,2.06,5.56,2.06,1.27,0,1.96-.44,1.96-1.17v-.05c0-.71-.56-1.1-2.89-1.64-3.65-.83-6.46-1.86-6.46-5.38v-.05c0-3.18,2.52-5.48,6.63-5.48,2.91,0,5.19.78,7.05,2.28l-2.37,3.35c-1.57-1.1-3.28-1.69-4.8-1.69-1.15,0-1.71.49-1.71,1.1v.05c0,.78.59,1.13,2.96,1.66,3.94.86,6.39,2.13,6.39,5.34v.05c0,3.5-2.77,5.58-6.93,5.58-3.03,0-5.92-.95-8.03-2.84Z"/>
      <path class="cls-3" d="M183.55,14.93l2.64-3.16c1.69,1.35,3.57,2.06,5.56,2.06,1.27,0,1.96-.44,1.96-1.17v-.05c0-.71-.56-1.1-2.89-1.64-3.65-.83-6.46-1.86-6.46-5.38v-.05c0-3.18,2.52-5.48,6.63-5.48,2.91,0,5.19.78,7.05,2.28l-2.37,3.35c-1.57-1.1-3.28-1.69-4.8-1.69-1.15,0-1.71.49-1.71,1.1v.05c0,.78.59,1.13,2.96,1.66,3.94.86,6.39,2.13,6.39,5.34v.05c0,3.5-2.77,5.58-6.93,5.58-3.03,0-5.92-.95-8.03-2.84Z"/>
      <path class="cls-3" d="M199.14.34h4.77v17.13h-4.77V.34Z"/>
      <path class="cls-3" d="M204.7,8.96v-.05c0-4.92,3.96-8.91,9.25-8.91s9.2,3.94,9.2,8.86v.05c0,4.92-3.96,8.91-9.25,8.91s-9.2-3.94-9.2-8.86ZM218.31,8.96v-.05c0-2.47-1.79-4.63-4.41-4.63s-4.33,2.1-4.33,4.58v.05c0,2.47,1.79,4.63,4.38,4.63s4.36-2.1,4.36-4.58Z"/>
      <path class="cls-3" d="M223.87.34h4.43l7.05,9.06V.34h4.7v17.13h-4.16l-7.32-9.4v9.4h-4.7V.34Z"/>
    </g>
  </g>
</svg>